REM DIRINDEX 1\2\4\8,1\2\4\9,1\2\4\10,1\2\5\11,1\2\5\12,1\2\5\13,1\2\5\14,1\2\5\15,1\3\6\16,1\3\6\17,1\3\6\18,1\3\7\19,1\3\7\20,1\3\7\21,1\3\7\22,1\3\7\23
REM DIRNAME "folder01","folder02","folder03","folder04","folder05","folder06","folder07","folder08","folder09","folder10","folder11","folder12","folder13","folder14","folder15","folder16","folder17","folder18","folder19","folder20","folder21","folder22","folder23"
TITLE ""
FILE "LR_black_phrase_E_02.mp3" MP3
  TRACK 01 AUDIO
    TITLE "0:"
    INDEX 01 00:00:00
  TRACK 02 AUDIO
    TITLE "8:cjc171_00301"
    INDEX 01 00:00:18
  TRACK 03 AUDIO
    TITLE "0:"
    INDEX 01 00:01:43
  TRACK 04 AUDIO
    TITLE "9:cjc171_00302"
    INDEX 01 00:01:72
  TRACK 05 AUDIO
    TITLE "0:"
    INDEX 01 00:04:14
  TRACK 06 AUDIO
    TITLE "10:cjc171_00303"
    INDEX 01 00:04:67
  TRACK 07 AUDIO
    TITLE "0:"
    INDEX 01 00:07:08
  TRACK 08 AUDIO
    TITLE "8:cjc171_00304"
    INDEX 01 00:08:04
  TRACK 09 AUDIO
    TITLE "0:"
    INDEX 01 00:09:09
  TRACK 10 AUDIO
    TITLE "9:cjc171_00305"
    INDEX 01 00:09:39
  TRACK 11 AUDIO
    TITLE "0:"
    INDEX 01 00:11:41
  TRACK 12 AUDIO
    TITLE "10:cjc171_00306"
    INDEX 01 00:12:19
  TRACK 13 AUDIO
    TITLE "0:"
    INDEX 01 00:14:22
  TRACK 14 AUDIO
    TITLE "8:cjc171_00307"
    INDEX 01 00:15:27
  TRACK 15 AUDIO
    TITLE "0:"
    INDEX 01 00:16:52
  TRACK 16 AUDIO
    TITLE "9:cjc171_00308"
    INDEX 01 00:17:07
  TRACK 17 AUDIO
    TITLE "0:"
    INDEX 01 00:19:17
  TRACK 18 AUDIO
    TITLE "10:cjc171_00309"
    INDEX 01 00:19:74
  TRACK 19 AUDIO
    TITLE "0:"
    INDEX 01 00:22:10
  TRACK 20 AUDIO
    TITLE "8:cjc171_00310"
    INDEX 01 00:23:17
  TRACK 21 AUDIO
    TITLE "0:"
    INDEX 01 00:24:36
  TRACK 22 AUDIO
    TITLE "9:cjc171_00311"
    INDEX 01 00:24:64
  TRACK 23 AUDIO
    TITLE "0:"
    INDEX 01 00:27:23
  TRACK 24 AUDIO
    TITLE "10:cjc171_00312"
    INDEX 01 00:27:70
  TRACK 25 AUDIO
    TITLE "0:"
    INDEX 01 00:30:27
  TRACK 26 AUDIO
    TITLE "8:cjc171_00313"
    INDEX 01 00:31:25
  TRACK 27 AUDIO
    TITLE "0:"
    INDEX 01 00:32:44
  TRACK 28 AUDIO
    TITLE "9:cjc171_00314"
    INDEX 01 00:32:71
  TRACK 29 AUDIO
    TITLE "0:"
    INDEX 01 00:34:54
  TRACK 30 AUDIO
    TITLE "10:cjc171_00315"
    INDEX 01 00:35:32
  TRACK 31 AUDIO
    TITLE "0:"
    INDEX 01 00:37:13
  TRACK 32 AUDIO
    TITLE "8:cjc171_00316"
    INDEX 01 00:38:17
  TRACK 33 AUDIO
    TITLE "0:"
    INDEX 01 00:39:38
  TRACK 34 AUDIO
    TITLE "9:cjc171_00317"
    INDEX 01 00:39:65
  TRACK 35 AUDIO
    TITLE "0:"
    INDEX 01 00:41:56
  TRACK 36 AUDIO
    TITLE "10:cjc171_00318"
    INDEX 01 00:42:32
  TRACK 37 AUDIO
    TITLE "0:"
    INDEX 01 00:44:21
  TRACK 38 AUDIO
    TITLE "8:cjc171_00319"
    INDEX 01 00:45:25
  TRACK 39 AUDIO
    TITLE "0:"
    INDEX 01 00:46:42
  TRACK 40 AUDIO
    TITLE "9:cjc171_00320"
    INDEX 01 00:46:71
  TRACK 41 AUDIO
    TITLE "0:"
    INDEX 01 00:48:72
  TRACK 42 AUDIO
    TITLE "10:cjc171_00321"
    INDEX 01 00:49:52
  TRACK 43 AUDIO
    TITLE "0:"
    INDEX 01 00:51:51
  TRACK 44 AUDIO
    TITLE "8:cjc171_00322"
    INDEX 01 00:52:58
  TRACK 45 AUDIO
    TITLE "0:"
    INDEX 01 00:54:06
  TRACK 46 AUDIO
    TITLE "9:cjc171_00323"
    INDEX 01 00:54:33
  TRACK 47 AUDIO
    TITLE "0:"
    INDEX 01 00:56:72
  TRACK 48 AUDIO
    TITLE "10:cjc171_00324"
    INDEX 01 00:57:49
  TRACK 49 AUDIO
    TITLE "0:"
    INDEX 01 01:00:12
  TRACK 50 AUDIO
    TITLE "8:cjc171_00325"
    INDEX 01 01:01:14
  TRACK 51 AUDIO
    TITLE "0:"
    INDEX 01 01:02:31
  TRACK 52 AUDIO
    TITLE "9:cjc171_00326"
    INDEX 01 01:02:62
  TRACK 53 AUDIO
    TITLE "0:"
    INDEX 01 01:04:67
  TRACK 54 AUDIO
    TITLE "10:cjc171_00327"
    INDEX 01 01:05:47
  TRACK 55 AUDIO
    TITLE "0:"
    INDEX 01 01:07:52
  TRACK 56 AUDIO
    TITLE "8:cjc171_00328"
    INDEX 01 01:08:57
  TRACK 57 AUDIO
    TITLE "0:"
    INDEX 01 01:10:07
  TRACK 58 AUDIO
    TITLE "9:cjc171_00329"
    INDEX 01 01:10:36
  TRACK 59 AUDIO
    TITLE "0:"
    INDEX 01 01:13:05
  TRACK 60 AUDIO
    TITLE "10:cjc171_00330"
    INDEX 01 01:13:56
  TRACK 61 AUDIO
    TITLE "0:"
    INDEX 01 01:16:25
  TRACK 62 AUDIO
    TITLE "8:cjc171_00331"
    INDEX 01 01:17:27
  TRACK 63 AUDIO
    TITLE "0:"
    INDEX 01 01:18:40
  TRACK 64 AUDIO
    TITLE "9:cjc171_00332"
    INDEX 01 01:19:06
  TRACK 65 AUDIO
    TITLE "0:"
    INDEX 01 01:21:13
  TRACK 66 AUDIO
    TITLE "10:cjc171_00333"
    INDEX 01 01:21:70
  TRACK 67 AUDIO
    TITLE "0:"
    INDEX 01 01:23:72
  TRACK 68 AUDIO
    TITLE "8:cjc171_00334"
    INDEX 01 01:25:05
  TRACK 69 AUDIO
    TITLE "0:"
    INDEX 01 01:26:26
  TRACK 70 AUDIO
    TITLE "9:cjc171_00335"
    INDEX 01 01:26:57
  TRACK 71 AUDIO
    TITLE "0:"
    INDEX 01 01:28:36
  TRACK 72 AUDIO
    TITLE "10:cjc171_00336"
    INDEX 01 01:29:16
  TRACK 73 AUDIO
    TITLE "0:"
    INDEX 01 01:30:74
  TRACK 74 AUDIO
    TITLE "8:cjc171_00337"
    INDEX 01 01:32:05
  TRACK 75 AUDIO
    TITLE "0:"
    INDEX 01 01:33:37
  TRACK 76 AUDIO
    TITLE "9:cjc171_00338"
    INDEX 01 01:33:53
  TRACK 77 AUDIO
    TITLE "0:"
    INDEX 01 01:36:08
  TRACK 78 AUDIO
    TITLE "10:cjc171_00339"
    INDEX 01 01:36:55
  TRACK 79 AUDIO
    TITLE "0:"
    INDEX 01 01:39:11
  TRACK 80 AUDIO
    TITLE "8:cjc171_00340"
    INDEX 01 01:40:16
  TRACK 81 AUDIO
    TITLE "0:"
    INDEX 01 01:41:39
  TRACK 82 AUDIO
    TITLE "9:cjc171_00341"
    INDEX 01 01:41:66
  TRACK 83 AUDIO
    TITLE "0:"
    INDEX 01 01:44:45
  TRACK 84 AUDIO
    TITLE "10:cjc171_00342"
    INDEX 01 01:45:27
  TRACK 85 AUDIO
    TITLE "0:"
    INDEX 01 01:48:04
  TRACK 86 AUDIO
    TITLE "8:cjc171_00343"
    INDEX 01 01:49:07
  TRACK 87 AUDIO
    TITLE "0:"
    INDEX 01 01:50:14
  TRACK 88 AUDIO
    TITLE "9:cjc171_00344"
    INDEX 01 01:50:36
  TRACK 89 AUDIO
    TITLE "0:"
    INDEX 01 01:52:25
  TRACK 90 AUDIO
    TITLE "10:cjc171_00345"
    INDEX 01 01:53:01
  TRACK 91 AUDIO
    TITLE "0:"
    INDEX 01 01:54:65
  TRACK 92 AUDIO
    TITLE "8:cjc171_00346"
    INDEX 01 01:55:66
  TRACK 93 AUDIO
    TITLE "0:"
    INDEX 01 01:57:07
  TRACK 94 AUDIO
    TITLE "9:cjc171_00347"
    INDEX 01 01:57:26
  TRACK 95 AUDIO
    TITLE "0:"
    INDEX 01 01:59:64
  TRACK 96 AUDIO
    TITLE "10:cjc171_00348"
    INDEX 01 02:00:28
  TRACK 97 AUDIO
    TITLE "0:"
    INDEX 01 02:02:66
  TRACK 98 AUDIO
    TITLE "8:cjc171_00349"
    INDEX 01 02:03:64
  TRACK 99 AUDIO
    TITLE "0:"
    INDEX 01 02:05:06
  TRACK 100 AUDIO
    TITLE "9:cjc171_00350"
    INDEX 01 02:05:30
  TRACK 101 AUDIO
    TITLE "0:"
    INDEX 01 02:07:27
  TRACK 102 AUDIO
    TITLE "10:cjc171_00351"
    INDEX 01 02:08:02
  TRACK 103 AUDIO
    TITLE "0:"
    INDEX 01 02:09:74
  TRACK 104 AUDIO
    TITLE "8:cjc171_00352"
    INDEX 01 02:11:07
  TRACK 105 AUDIO
    TITLE "0:"
    INDEX 01 02:12:32
  TRACK 106 AUDIO
    TITLE "9:cjc171_00353"
    INDEX 01 02:12:57
  TRACK 107 AUDIO
    TITLE "0:"
    INDEX 01 02:14:48
  TRACK 108 AUDIO
    TITLE "10:cjc171_00354"
    INDEX 01 02:15:24
  TRACK 109 AUDIO
    TITLE "0:"
    INDEX 01 02:17:15
  TRACK 110 AUDIO
    TITLE "8:cjc171_00355"
    INDEX 01 02:18:19
  TRACK 111 AUDIO
    TITLE "0:"
    INDEX 01 02:19:45
  TRACK 112 AUDIO
    TITLE "9:cjc171_00356"
    INDEX 01 02:19:59
  TRACK 113 AUDIO
    TITLE "0:"
    INDEX 01 02:21:42
  TRACK 114 AUDIO
    TITLE "10:cjc171_00357"
    INDEX 01 02:22:14
  TRACK 115 AUDIO
    TITLE "0:"
    INDEX 01 02:23:73
  TRACK 116 AUDIO
    TITLE "8:cjc171_00358"
    INDEX 01 02:25:01
  TRACK 117 AUDIO
    TITLE "0:"
    INDEX 01 02:26:22
  TRACK 118 AUDIO
    TITLE "9:cjc171_00359"
    INDEX 01 02:26:51
  TRACK 119 AUDIO
    TITLE "0:"
    INDEX 01 02:28:50
  TRACK 120 AUDIO
    TITLE "10:cjc171_00360"
    INDEX 01 02:29:30
  TRACK 121 AUDIO
    TITLE "0:"
    INDEX 01 02:31:27
  TRACK 122 AUDIO
    TITLE "8:cjc171_00361"
    INDEX 01 02:32:32
  TRACK 123 AUDIO
    TITLE "0:"
    INDEX 01 02:33:49
  TRACK 124 AUDIO
    TITLE "9:cjc171_00362"
    INDEX 01 02:34:04
  TRACK 125 AUDIO
    TITLE "0:"
    INDEX 01 02:35:74
  TRACK 126 AUDIO
    TITLE "10:cjc171_00363"
    INDEX 01 02:36:56
  TRACK 127 AUDIO
    TITLE "0:"
    INDEX 01 02:38:51
  TRACK 128 AUDIO
    TITLE "8:cjc171_00364"
    INDEX 01 02:39:54
  TRACK 129 AUDIO
    TITLE "0:"
    INDEX 01 02:41:12
  TRACK 130 AUDIO
    TITLE "9:cjc171_00365"
    INDEX 01 02:41:43
  TRACK 131 AUDIO
    TITLE "0:"
    INDEX 01 02:44:28
  TRACK 132 AUDIO
    TITLE "10:cjc171_00366"
    INDEX 01 02:45:10
  TRACK 133 AUDIO
    TITLE "0:"
    INDEX 01 02:47:69
  TRACK 134 AUDIO
    TITLE "8:cjc171_00367"
    INDEX 01 02:48:73
  TRACK 135 AUDIO
    TITLE "0:"
    INDEX 01 02:50:11
  TRACK 136 AUDIO
    TITLE "9:cjc171_00368"
    INDEX 01 02:50:40
  TRACK 137 AUDIO
    TITLE "0:"
    INDEX 01 02:52:66
  TRACK 138 AUDIO
    TITLE "10:cjc171_00369"
    INDEX 01 02:53:44
  TRACK 139 AUDIO
    TITLE "0:"
    INDEX 01 02:55:71
  TRACK 140 AUDIO
    TITLE "8:cjc171_00370"
    INDEX 01 02:56:74
  TRACK 141 AUDIO
    TITLE "0:"
    INDEX 01 02:58:36
  TRACK 142 AUDIO
    TITLE "9:cjc171_00371"
    INDEX 01 02:58:65
  TRACK 143 AUDIO
    TITLE "0:"
    INDEX 01 03:00:74
  TRACK 144 AUDIO
    TITLE "10:cjc171_00372"
    INDEX 01 03:01:54
  TRACK 145 AUDIO
    TITLE "0:"
    INDEX 01 03:03:64
  TRACK 146 AUDIO
    TITLE "8:cjc171_00373"
    INDEX 01 03:04:70
  TRACK 147 AUDIO
    TITLE "0:"
    INDEX 01 03:06:12
  TRACK 148 AUDIO
    TITLE "9:cjc171_00374"
    INDEX 01 03:06:43
  TRACK 149 AUDIO
    TITLE "0:"
    INDEX 01 03:09:24
  TRACK 150 AUDIO
    TITLE "10:cjc171_00375"
    INDEX 01 03:10:04
  TRACK 151 AUDIO
    TITLE "0:"
    INDEX 01 03:12:61
  TRACK 152 AUDIO
    TITLE "8:cjc171_00376"
    INDEX 01 03:13:67
  TRACK 153 AUDIO
    TITLE "0:"
    INDEX 01 03:15:09
  TRACK 154 AUDIO
    TITLE "9:cjc171_00377"
    INDEX 01 03:15:38
  TRACK 155 AUDIO
    TITLE "0:"
    INDEX 01 03:17:39
  TRACK 156 AUDIO
    TITLE "10:cjc171_00378"
    INDEX 01 03:18:17
  TRACK 157 AUDIO
    TITLE "0:"
    INDEX 01 03:20:18
  TRACK 158 AUDIO
    TITLE "8:cjc171_00379"
    INDEX 01 03:21:21
  TRACK 159 AUDIO
    TITLE "0:"
    INDEX 01 03:22:36
  TRACK 160 AUDIO
    TITLE "9:cjc171_00380"
    INDEX 01 03:22:66
  TRACK 161 AUDIO
    TITLE "0:"
    INDEX 01 03:24:61
  TRACK 162 AUDIO
    TITLE "10:cjc171_00381"
    INDEX 01 03:25:40
  TRACK 163 AUDIO
    TITLE "0:"
    INDEX 01 03:27:33
  TRACK 164 AUDIO
    TITLE "8:cjc171_00382"
    INDEX 01 03:28:39
  TRACK 165 AUDIO
    TITLE "0:"
    INDEX 01 03:29:52
  TRACK 166 AUDIO
    TITLE "9:cjc171_00383"
    INDEX 01 03:30:06
  TRACK 167 AUDIO
    TITLE "0:"
    INDEX 01 03:32:03
  TRACK 168 AUDIO
    TITLE "10:cjc171_00384"
    INDEX 01 03:32:56
  TRACK 169 AUDIO
    TITLE "0:"
    INDEX 01 03:34:53
  TRACK 170 AUDIO
    TITLE "8:cjc171_00385"
    INDEX 01 03:35:56
  TRACK 171 AUDIO
    TITLE "0:"
    INDEX 01 03:37:02
  TRACK 172 AUDIO
    TITLE "9:cjc171_00386"
    INDEX 01 03:37:34
  TRACK 173 AUDIO
    TITLE "0:"
    INDEX 01 03:39:58
  TRACK 174 AUDIO
    TITLE "10:cjc171_00387"
    INDEX 01 03:40:36
  TRACK 175 AUDIO
    TITLE "0:"
    INDEX 01 03:42:60
  TRACK 176 AUDIO
    TITLE "8:cjc171_00388"
    INDEX 01 03:43:64
  TRACK 177 AUDIO
    TITLE "0:"
    INDEX 01 03:45:02
  TRACK 178 AUDIO
    TITLE "9:cjc171_00389"
    INDEX 01 03:45:37
  TRACK 179 AUDIO
    TITLE "0:"
    INDEX 01 03:48:00
  TRACK 180 AUDIO
    TITLE "10:cjc171_00390"
    INDEX 01 03:48:51
  TRACK 181 AUDIO
    TITLE "0:"
    INDEX 01 03:51:16
  TRACK 182 AUDIO
    TITLE "8:cjc171_00391"
    INDEX 01 03:52:18
  TRACK 183 AUDIO
    TITLE "0:"
    INDEX 01 03:53:52
  TRACK 184 AUDIO
    TITLE "9:cjc171_00392"
    INDEX 01 03:54:07
  TRACK 185 AUDIO
    TITLE "0:"
    INDEX 01 03:56:57
  TRACK 186 AUDIO
    TITLE "10:cjc171_00393"
    INDEX 01 03:57:34
  TRACK 187 AUDIO
    TITLE "0:"
    INDEX 01 04:00:09
  TRACK 188 AUDIO
    TITLE "8:cjc171_00394"
    INDEX 01 04:01:13
  TRACK 189 AUDIO
    TITLE "0:"
    INDEX 01 04:02:26
  TRACK 190 AUDIO
    TITLE "9:cjc171_00395"
    INDEX 01 04:02:45
  TRACK 191 AUDIO
    TITLE "0:"
    INDEX 01 04:05:10
  TRACK 192 AUDIO
    TITLE "10:cjc171_00396"
    INDEX 01 04:05:54
  TRACK 193 AUDIO
    TITLE "0:"
    INDEX 01 04:08:17
  TRACK 194 AUDIO
    TITLE "8:cjc171_00397"
    INDEX 01 04:09:18
  TRACK 195 AUDIO
    TITLE "0:"
    INDEX 01 04:10:43
  TRACK 196 AUDIO
    TITLE "9:cjc171_00398"
    INDEX 01 04:10:70
  TRACK 197 AUDIO
    TITLE "0:"
    INDEX 01 04:12:63
  TRACK 198 AUDIO
    TITLE "10:cjc171_00399"
    INDEX 01 04:13:43
  TRACK 199 AUDIO
    TITLE "0:"
    INDEX 01 04:15:36
  TRACK 200 AUDIO
    TITLE "8:cjc171_00400"
    INDEX 01 04:16:40
  TRACK 201 AUDIO
    TITLE "0:"
    INDEX 01 04:17:57
  TRACK 202 AUDIO
    TITLE "9:cjc171_00401"
    INDEX 01 04:18:13
  TRACK 203 AUDIO
    TITLE "0:"
    INDEX 01 04:21:47
  TRACK 204 AUDIO
    TITLE "10:cjc171_00402"
    INDEX 01 04:22:23
  TRACK 205 AUDIO
    TITLE "0:"
    INDEX 01 04:25:56
  TRACK 206 AUDIO
    TITLE "8:cjc171_00403"
    INDEX 01 04:26:60
  TRACK 207 AUDIO
    TITLE "0:"
    INDEX 01 04:27:69
  TRACK 208 AUDIO
    TITLE "9:cjc171_00404"
    INDEX 01 04:28:25
  TRACK 209 AUDIO
    TITLE "0:"
    INDEX 01 04:30:30
  TRACK 210 AUDIO
    TITLE "10:cjc171_00405"
    INDEX 01 04:31:12
  TRACK 211 AUDIO
    TITLE "0:"
    INDEX 01 04:33:19
  TRACK 212 AUDIO
    TITLE "8:cjc171_00406"
    INDEX 01 04:34:22
  TRACK 213 AUDIO
    TITLE "0:"
    INDEX 01 04:35:51
  TRACK 214 AUDIO
    TITLE "9:cjc171_00407"
    INDEX 01 04:36:05
  TRACK 215 AUDIO
    TITLE "0:"
    INDEX 01 04:38:55
  TRACK 216 AUDIO
    TITLE "10:cjc171_00408"
    INDEX 01 04:39:37
  TRACK 217 AUDIO
    TITLE "0:"
    INDEX 01 04:42:16
  TRACK 218 AUDIO
    TITLE "8:cjc171_00409"
    INDEX 01 04:43:19
  TRACK 219 AUDIO
    TITLE "0:"
    INDEX 01 04:44:26
  TRACK 220 AUDIO
    TITLE "9:cjc171_00410"
    INDEX 01 04:44:63
  TRACK 221 AUDIO
    TITLE "0:"
    INDEX 01 04:47:01
  TRACK 222 AUDIO
    TITLE "10:cjc171_00411"
    INDEX 01 04:47:56
  TRACK 223 AUDIO
    TITLE "0:"
    INDEX 01 04:49:69
  TRACK 224 AUDIO
    TITLE "8:cjc171_00412"
    INDEX 01 04:50:74
  TRACK 225 AUDIO
    TITLE "0:"
    INDEX 01 04:52:04
  TRACK 226 AUDIO
    TITLE "9:cjc171_00413"
    INDEX 01 04:52:34
  TRACK 227 AUDIO
    TITLE "0:"
    INDEX 01 04:55:46
  TRACK 228 AUDIO
    TITLE "10:cjc171_00414"
    INDEX 01 04:56:27
  TRACK 229 AUDIO
    TITLE "0:"
    INDEX 01 04:59:39
  TRACK 230 AUDIO
    TITLE "8:cjc171_00415"
    INDEX 01 05:00:45
  TRACK 231 AUDIO
    TITLE "0:"
    INDEX 01 05:02:06
  TRACK 232 AUDIO
    TITLE "9:cjc171_00416"
    INDEX 01 05:02:38
  TRACK 233 AUDIO
    TITLE "0:"
    INDEX 01 05:04:48
  TRACK 234 AUDIO
    TITLE "10:cjc171_00417"
    INDEX 01 05:05:24
  TRACK 235 AUDIO
    TITLE "0:"
    INDEX 01 05:07:35
  TRACK 236 AUDIO
    TITLE "8:cjc171_00418"
    INDEX 01 05:08:37
  TRACK 237 AUDIO
    TITLE "0:"
    INDEX 01 05:10:00
  TRACK 238 AUDIO
    TITLE "9:cjc171_00419"
    INDEX 01 05:10:24
  TRACK 239 AUDIO
    TITLE "0:"
    INDEX 01 05:12:36
  TRACK 240 AUDIO
    TITLE "10:cjc171_00420"
    INDEX 01 05:13:20
  TRACK 241 AUDIO
    TITLE "0:"
    INDEX 01 05:15:31
  TRACK 242 AUDIO
    TITLE "8:cjc171_00421"
    INDEX 01 05:16:42
  TRACK 243 AUDIO
    TITLE "0:"
    INDEX 01 05:17:51
  TRACK 244 AUDIO
    TITLE "9:cjc171_00422"
    INDEX 01 05:18:06
  TRACK 245 AUDIO
    TITLE "0:"
    INDEX 01 05:19:40
  TRACK 246 AUDIO
    TITLE "10:cjc171_00423"
    INDEX 01 05:20:20
  TRACK 247 AUDIO
    TITLE "0:"
    INDEX 01 05:21:55
  TRACK 248 AUDIO
    TITLE "8:cjc171_00424"
    INDEX 01 05:22:60
  TRACK 249 AUDIO
    TITLE "0:"
    INDEX 01 05:23:71
  TRACK 250 AUDIO
    TITLE "9:cjc171_00425"
    INDEX 01 05:24:28
  TRACK 251 AUDIO
    TITLE "0:"
    INDEX 01 05:27:04
  TRACK 252 AUDIO
    TITLE "10:cjc171_00426"
    INDEX 01 05:27:59
  TRACK 253 AUDIO
    TITLE "0:"
    INDEX 01 05:30:36
  TRACK 254 AUDIO
    TITLE "8:cjc171_00427"
    INDEX 01 05:31:49
  TRACK 255 AUDIO
    TITLE "0:"
    INDEX 01 05:32:74
  TRACK 256 AUDIO
    TITLE "9:cjc171_00428"
    INDEX 01 05:33:33
  TRACK 257 AUDIO
    TITLE "0:"
    INDEX 01 05:35:29
  TRACK 258 AUDIO
    TITLE "10:cjc171_00429"
    INDEX 01 05:36:09
  TRACK 259 AUDIO
    TITLE "0:"
    INDEX 01 05:38:06
  TRACK 260 AUDIO
    TITLE "8:cjc171_00430"
    INDEX 01 05:39:12
  TRACK 261 AUDIO
    TITLE "0:"
    INDEX 01 05:40:37
  TRACK 262 AUDIO
    TITLE "9:cjc171_00431"
    INDEX 01 05:40:64
  TRACK 263 AUDIO
    TITLE "0:"
    INDEX 01 05:43:09
  TRACK 264 AUDIO
    TITLE "10:cjc171_00432"
    INDEX 01 05:43:64
  TRACK 265 AUDIO
    TITLE "0:"
    INDEX 01 05:46:10
  TRACK 266 AUDIO
    TITLE "8:cjc171_00433"
    INDEX 01 05:47:15
  TRACK 267 AUDIO
    TITLE "0:"
    INDEX 01 05:48:38
  TRACK 268 AUDIO
    TITLE "9:cjc171_00434"
    INDEX 01 05:48:67
  TRACK 269 AUDIO
    TITLE "0:"
    INDEX 01 05:51:01
  TRACK 270 AUDIO
    TITLE "10:cjc171_00435"
    INDEX 01 05:51:54
  TRACK 271 AUDIO
    TITLE "0:"
    INDEX 01 05:53:63
  TRACK 272 AUDIO
    TITLE "8:cjc171_00436"
    INDEX 01 05:54:66
  TRACK 273 AUDIO
    TITLE "0:"
    INDEX 01 05:56:24
  TRACK 274 AUDIO
    TITLE "9:cjc171_00437"
    INDEX 01 05:56:51
  TRACK 275 AUDIO
    TITLE "0:"
    INDEX 01 05:58:52
  TRACK 276 AUDIO
    TITLE "10:cjc171_00438"
    INDEX 01 05:59:32
  TRACK 277 AUDIO
    TITLE "0:"
    INDEX 01 06:01:33
  TRACK 278 AUDIO
    TITLE "8:cjc171_00439"
    INDEX 01 06:02:38
  TRACK 279 AUDIO
    TITLE "0:"
    INDEX 01 06:03:39
  TRACK 280 AUDIO
    TITLE "9:cjc171_00440"
    INDEX 01 06:03:69
  TRACK 281 AUDIO
    TITLE "0:"
    INDEX 01 06:06:30
  TRACK 282 AUDIO
    TITLE "10:cjc171_00441"
    INDEX 01 06:07:06
  TRACK 283 AUDIO
    TITLE "0:"
    INDEX 01 06:09:42
  TRACK 284 AUDIO
    TITLE "8:cjc171_00442"
    INDEX 01 06:10:45
  TRACK 285 AUDIO
    TITLE "0:"
    INDEX 01 06:12:03
  TRACK 286 AUDIO
    TITLE "9:cjc171_00443"
    INDEX 01 06:12:33
  TRACK 287 AUDIO
    TITLE "0:"
    INDEX 01 06:15:04
  TRACK 288 AUDIO
    TITLE "10:cjc171_00444"
    INDEX 01 06:15:60
  TRACK 289 AUDIO
    TITLE "0:"
    INDEX 01 06:18:31
  TRACK 290 AUDIO
    TITLE "8:cjc171_00445"
    INDEX 01 06:19:39
  TRACK 291 AUDIO
    TITLE "0:"
    INDEX 01 06:20:56
  TRACK 292 AUDIO
    TITLE "9:cjc171_00446"
    INDEX 01 06:21:10
  TRACK 293 AUDIO
    TITLE "0:"
    INDEX 01 06:23:25
  TRACK 294 AUDIO
    TITLE "10:cjc171_00447"
    INDEX 01 06:24:04
  TRACK 295 AUDIO
    TITLE "0:"
    INDEX 01 06:26:21
  TRACK 296 AUDIO
    TITLE "8:cjc171_00448"
    INDEX 01 06:27:26
  TRACK 297 AUDIO
    TITLE "0:"
    INDEX 01 06:28:37
  TRACK 298 AUDIO
    TITLE "9:cjc171_00449"
    INDEX 01 06:28:67
  TRACK 299 AUDIO
    TITLE "0:"
    INDEX 01 06:31:22
  TRACK 300 AUDIO
    TITLE "10:cjc171_00450"
    INDEX 01 06:32:02
  TRACK 301 AUDIO
    TITLE "0:"
    INDEX 01 06:34:32
  TRACK 302 AUDIO
    TITLE "8:cjc171_00451"
    INDEX 01 06:35:39
  TRACK 303 AUDIO
    TITLE "0:"
    INDEX 01 06:36:39
  TRACK 304 AUDIO
    TITLE "9:cjc171_00452"
    INDEX 01 06:37:07
  TRACK 305 AUDIO
    TITLE "0:"
    INDEX 01 06:39:10
  TRACK 306 AUDIO
    TITLE "10:cjc171_00453"
    INDEX 01 06:39:65
  TRACK 307 AUDIO
    TITLE "0:"
    INDEX 01 06:41:70
  TRACK 308 AUDIO
    TITLE "8:cjc171_00454"
    INDEX 01 06:42:73
  TRACK 309 AUDIO
    TITLE "0:"
    INDEX 01 06:44:29
  TRACK 310 AUDIO
    TITLE "9:cjc171_00455"
    INDEX 01 06:44:56
  TRACK 311 AUDIO
    TITLE "0:"
    INDEX 01 06:46:51
  TRACK 312 AUDIO
    TITLE "10:cjc171_00456"
    INDEX 01 06:47:33
  TRACK 313 AUDIO
    TITLE "0:"
    INDEX 01 06:49:22
  TRACK 314 AUDIO
    TITLE "8:cjc171_00457"
    INDEX 01 06:50:25
  TRACK 315 AUDIO
    TITLE "0:"
    INDEX 01 06:51:35
  TRACK 316 AUDIO
    TITLE "9:cjc171_00458"
    INDEX 01 06:51:64
  TRACK 317 AUDIO
    TITLE "0:"
    INDEX 01 06:54:09
  TRACK 318 AUDIO
    TITLE "10:cjc171_00459"
    INDEX 01 06:54:62
  TRACK 319 AUDIO
    TITLE "0:"
    INDEX 01 06:57:06
  TRACK 320 AUDIO
    TITLE "8:cjc171_00460"
    INDEX 01 06:58:09
  TRACK 321 AUDIO
    TITLE "0:"
    INDEX 01 06:59:15
  TRACK 322 AUDIO
    TITLE "9:cjc171_00461"
    INDEX 01 06:59:44
  TRACK 323 AUDIO
    TITLE "0:"
    INDEX 01 07:01:23
  TRACK 324 AUDIO
    TITLE "10:cjc171_00462"
    INDEX 01 07:02:05
  TRACK 325 AUDIO
    TITLE "0:"
    INDEX 01 07:03:59
  TRACK 326 AUDIO
    TITLE "8:cjc171_00463"
    INDEX 01 07:04:65
  TRACK 327 AUDIO
    TITLE "0:"
    INDEX 01 07:06:09
  TRACK 328 AUDIO
    TITLE "9:cjc171_00464"
    INDEX 01 07:06:38
  TRACK 329 AUDIO
    TITLE "0:"
    INDEX 01 07:08:72
  TRACK 330 AUDIO
    TITLE "10:cjc171_00465"
    INDEX 01 07:09:50
  TRACK 331 AUDIO
    TITLE "0:"
    INDEX 01 07:12:11
  TRACK 332 AUDIO
    TITLE "8:cjc171_00466"
    INDEX 01 07:13:13
  TRACK 333 AUDIO
    TITLE "0:"
    INDEX 01 07:14:38
  TRACK 334 AUDIO
    TITLE "9:cjc171_00467"
    INDEX 01 07:14:65
  TRACK 335 AUDIO
    TITLE "0:"
    INDEX 01 07:17:30
  TRACK 336 AUDIO
    TITLE "10:cjc171_00468"
    INDEX 01 07:18:10
  TRACK 337 AUDIO
    TITLE "0:"
    INDEX 01 07:20:50
  TRACK 338 AUDIO
    TITLE "8:cjc171_00469"
    INDEX 01 07:21:53
  TRACK 339 AUDIO
    TITLE "0:"
    INDEX 01 07:23:05
  TRACK 340 AUDIO
    TITLE "9:cjc171_00470"
    INDEX 01 07:23:35
  TRACK 341 AUDIO
    TITLE "0:"
    INDEX 01 07:25:69
  TRACK 342 AUDIO
    TITLE "10:cjc171_00471"
    INDEX 01 07:26:51
  TRACK 343 AUDIO
    TITLE "0:"
    INDEX 01 07:29:06
  TRACK 344 AUDIO
    TITLE "8:cjc171_00472"
    INDEX 01 07:30:09
  TRACK 345 AUDIO
    TITLE "0:"
    INDEX 01 07:31:34
  TRACK 346 AUDIO
    TITLE "9:cjc171_00473"
    INDEX 01 07:31:63
  TRACK 347 AUDIO
    TITLE "0:"
    INDEX 01 07:34:13
  TRACK 348 AUDIO
    TITLE "10:cjc171_00474"
    INDEX 01 07:34:72
  TRACK 349 AUDIO
    TITLE "0:"
    INDEX 01 07:37:21
  TRACK 350 AUDIO
    TITLE "8:cjc171_00475"
    INDEX 01 07:38:30
  TRACK 351 AUDIO
    TITLE "0:"
    INDEX 01 07:39:45
  TRACK 352 AUDIO
    TITLE "9:cjc171_00476"
    INDEX 01 07:39:71
  TRACK 353 AUDIO
    TITLE "0:"
    INDEX 01 07:42:10
  TRACK 354 AUDIO
    TITLE "10:cjc171_00477"
    INDEX 01 07:42:57
  TRACK 355 AUDIO
    TITLE "0:"
    INDEX 01 07:44:74
  TRACK 356 AUDIO
    TITLE "8:cjc171_00478"
    INDEX 01 07:46:02
  TRACK 357 AUDIO
    TITLE "0:"
    INDEX 01 07:47:33
  TRACK 358 AUDIO
    TITLE "9:cjc171_00479"
    INDEX 01 07:47:64
  TRACK 359 AUDIO
    TITLE "0:"
    INDEX 01 07:51:64
  TRACK 360 AUDIO
    TITLE "10:cjc171_00480"
    INDEX 01 07:52:44
  TRACK 361 AUDIO
    TITLE "0:"
    INDEX 01 07:56:44
  TRACK 362 AUDIO
    TITLE "8:cjc171_00481"
    INDEX 01 07:57:49
  TRACK 363 AUDIO
    TITLE "0:"
    INDEX 01 07:59:11
  TRACK 364 AUDIO
    TITLE "9:cjc171_00482"
    INDEX 01 07:59:42
  TRACK 365 AUDIO
    TITLE "0:"
    INDEX 01 08:01:37
  TRACK 366 AUDIO
    TITLE "10:cjc171_00483"
    INDEX 01 08:02:17
  TRACK 367 AUDIO
    TITLE "0:"
    INDEX 01 08:04:12
  TRACK 368 AUDIO
    TITLE "8:cjc171_00484"
    INDEX 01 08:05:17
  TRACK 369 AUDIO
    TITLE "0:"
    INDEX 01 08:06:25
  TRACK 370 AUDIO
    TITLE "9:cjc171_00485"
    INDEX 01 08:06:54
  TRACK 371 AUDIO
    TITLE "0:"
    INDEX 01 08:09:31
  TRACK 372 AUDIO
    TITLE "10:cjc171_00486"
    INDEX 01 08:10:09
  TRACK 373 AUDIO
    TITLE "0:"
    INDEX 01 08:12:61
  TRACK 374 AUDIO
    TITLE "8:cjc171_00487"
    INDEX 01 08:13:64
  TRACK 375 AUDIO
    TITLE "0:"
    INDEX 01 08:15:10
  TRACK 376 AUDIO
    TITLE "9:cjc171_00488"
    INDEX 01 08:15:37
  TRACK 377 AUDIO
    TITLE "0:"
    INDEX 01 08:17:36
  TRACK 378 AUDIO
    TITLE "10:cjc171_00489"
    INDEX 01 08:18:14
  TRACK 379 AUDIO
    TITLE "0:"
    INDEX 01 08:20:15
  TRACK 380 AUDIO
    TITLE "8:cjc171_00490"
    INDEX 01 08:21:16
  TRACK 381 AUDIO
    TITLE "0:"
    INDEX 01 08:22:41
  TRACK 382 AUDIO
    TITLE "9:cjc171_00491"
    INDEX 01 08:22:73
  TRACK 383 AUDIO
    TITLE "0:"
    INDEX 01 08:24:56
  TRACK 384 AUDIO
    TITLE "10:cjc171_00492"
    INDEX 01 08:25:34
  TRACK 385 AUDIO
    TITLE "0:"
    INDEX 01 08:27:19
  TRACK 386 AUDIO
    TITLE "8:cjc171_00493"
    INDEX 01 08:28:22
  TRACK 387 AUDIO
    TITLE "0:"
    INDEX 01 08:29:61
  TRACK 388 AUDIO
    TITLE "9:cjc171_00494"
    INDEX 01 08:30:11
  TRACK 389 AUDIO
    TITLE "0:"
    INDEX 01 08:32:22
  TRACK 390 AUDIO
    TITLE "10:cjc171_00495"
    INDEX 01 08:33:02
  TRACK 391 AUDIO
    TITLE "0:"
    INDEX 01 08:35:13
  TRACK 392 AUDIO
    TITLE "8:cjc171_00496"
    INDEX 01 08:36:16
  TRACK 393 AUDIO
    TITLE "0:"
    INDEX 01 08:37:19
  TRACK 394 AUDIO
    TITLE "9:cjc171_00497"
    INDEX 01 08:37:49
  TRACK 395 AUDIO
    TITLE "0:"
    INDEX 01 08:39:63
  TRACK 396 AUDIO
    TITLE "10:cjc171_00498"
    INDEX 01 08:40:41
  TRACK 397 AUDIO
    TITLE "0:"
    INDEX 01 08:42:60
  TRACK 398 AUDIO
    TITLE "8:cjc171_00499"
    INDEX 01 08:43:61
  TRACK 399 AUDIO
    TITLE "0:"
    INDEX 01 08:44:74
  TRACK 400 AUDIO
    TITLE "9:cjc171_00500"
    INDEX 01 08:45:29
  TRACK 401 AUDIO
    TITLE "0:"
    INDEX 01 08:47:24
  TRACK 402 AUDIO
    TITLE "10:cjc171_00501"
    INDEX 01 08:48:03
  TRACK 403 AUDIO
    TITLE "0:"
    INDEX 01 08:49:73
  TRACK 404 AUDIO
    TITLE "8:cjc171_00502"
    INDEX 01 08:51:04
  TRACK 405 AUDIO
    TITLE "0:"
    INDEX 01 08:52:46
  TRACK 406 AUDIO
    TITLE "9:cjc171_00503"
    INDEX 01 08:52:74
  TRACK 407 AUDIO
    TITLE "0:"
    INDEX 01 08:55:25
  TRACK 408 AUDIO
    TITLE "10:cjc171_00504"
    INDEX 01 08:56:03
  TRACK 409 AUDIO
    TITLE "0:"
    INDEX 01 08:58:27
  TRACK 410 AUDIO
    TITLE "8:cjc171_00505"
    INDEX 01 08:59:29
  TRACK 411 AUDIO
    TITLE "0:"
    INDEX 01 09:00:48
  TRACK 412 AUDIO
    TITLE "9:cjc171_00506"
    INDEX 01 09:00:71
  TRACK 413 AUDIO
    TITLE "0:"
    INDEX 01 09:03:32
  TRACK 414 AUDIO
    TITLE "10:cjc171_00507"
    INDEX 01 09:04:12
  TRACK 415 AUDIO
    TITLE "0:"
    INDEX 01 09:06:48
  TRACK 416 AUDIO
    TITLE "8:cjc171_00508"
    INDEX 01 09:07:52
  TRACK 417 AUDIO
    TITLE "0:"
    INDEX 01 09:09:00
  TRACK 418 AUDIO
    TITLE "9:cjc171_00509"
    INDEX 01 09:09:27
  TRACK 419 AUDIO
    TITLE "0:"
    INDEX 01 09:11:14
  TRACK 420 AUDIO
    TITLE "10:cjc171_00510"
    INDEX 01 09:11:67
  TRACK 421 AUDIO
    TITLE "0:"
    INDEX 01 09:13:54
  TRACK 422 AUDIO
    TITLE "8:cjc171_00511"
    INDEX 01 09:14:58
  TRACK 423 AUDIO
    TITLE "0:"
    INDEX 01 09:16:12
  TRACK 424 AUDIO
    TITLE "9:cjc171_00512"
    INDEX 01 09:16:35
  TRACK 425 AUDIO
    TITLE "0:"
    INDEX 01 09:18:67
  TRACK 426 AUDIO
    TITLE "10:cjc171_00513"
    INDEX 01 09:19:39
  TRACK 427 AUDIO
    TITLE "0:"
    INDEX 01 09:21:71
  TRACK 428 AUDIO
    TITLE "8:cjc171_00514"
    INDEX 01 09:23:02
  TRACK 429 AUDIO
    TITLE "0:"
    INDEX 01 09:24:21
  TRACK 430 AUDIO
    TITLE "9:cjc171_00515"
    INDEX 01 09:24:50
  TRACK 431 AUDIO
    TITLE "0:"
    INDEX 01 09:27:68
  TRACK 432 AUDIO
    TITLE "10:cjc171_00516"
    INDEX 01 09:28:44
  TRACK 433 AUDIO
    TITLE "0:"
    INDEX 01 09:31:62
  TRACK 434 AUDIO
    TITLE "8:cjc171_00517"
    INDEX 01 09:32:63
  TRACK 435 AUDIO
    TITLE "0:"
    INDEX 01 09:34:17
  TRACK 436 AUDIO
    TITLE "9:cjc171_00518"
    INDEX 01 09:34:37
  TRACK 437 AUDIO
    TITLE "0:"
    INDEX 01 09:37:06
  TRACK 438 AUDIO
    TITLE "10:cjc171_00519"
    INDEX 01 09:37:55
  TRACK 439 AUDIO
    TITLE "0:"
    INDEX 01 09:40:24
  TRACK 440 AUDIO
    TITLE "8:cjc171_00520"
    INDEX 01 09:41:27
  TRACK 441 AUDIO
    TITLE "0:"
    INDEX 01 09:42:56
  TRACK 442 AUDIO
    TITLE "9:cjc171_00521"
    INDEX 01 09:43:03
  TRACK 443 AUDIO
    TITLE "0:"
    INDEX 01 09:45:03
  TRACK 444 AUDIO
    TITLE "10:cjc171_00522"
    INDEX 01 09:45:52
  TRACK 445 AUDIO
    TITLE "0:"
    INDEX 01 09:47:53
  TRACK 446 AUDIO
    TITLE "8:cjc171_00523"
    INDEX 01 09:48:57
  TRACK 447 AUDIO
    TITLE "0:"
    INDEX 01 09:49:74
  TRACK 448 AUDIO
    TITLE "9:cjc171_00524"
    INDEX 01 09:50:30
  TRACK 449 AUDIO
    TITLE "0:"
    INDEX 01 09:52:54
  TRACK 450 AUDIO
    TITLE "10:cjc171_00525"
    INDEX 01 09:53:32
  TRACK 451 AUDIO
    TITLE "0:"
    INDEX 01 09:55:57
  TRACK 452 AUDIO
    TITLE "8:cjc171_00526"
    INDEX 01 09:56:60
  TRACK 453 AUDIO
    TITLE "0:"
    INDEX 01 09:58:08
  TRACK 454 AUDIO
    TITLE "9:cjc171_00527"
    INDEX 01 09:58:37
  TRACK 455 AUDIO
    TITLE "0:"
    INDEX 01 10:00:50
  TRACK 456 AUDIO
    TITLE "10:cjc171_00528"
    INDEX 01 10:01:30
  TRACK 457 AUDIO
    TITLE "0:"
    INDEX 01 10:03:42
  TRACK 458 AUDIO
    TITLE "8:cjc171_00529"
    INDEX 01 10:04:48
  TRACK 459 AUDIO
    TITLE "0:"
    INDEX 01 10:06:25
  TRACK 460 AUDIO
    TITLE "9:cjc171_00530"
    INDEX 01 10:06:55
  TRACK 461 AUDIO
    TITLE "0:"
    INDEX 01 10:08:69
  TRACK 462 AUDIO
    TITLE "10:cjc171_00531"
    INDEX 01 10:09:47
  TRACK 463 AUDIO
    TITLE "0:"
    INDEX 01 10:11:64
  TRACK 464 AUDIO
    TITLE "8:cjc171_00532"
    INDEX 01 10:12:65
  TRACK 465 AUDIO
    TITLE "0:"
    INDEX 01 10:14:01
  TRACK 466 AUDIO
    TITLE "9:cjc171_00533"
    INDEX 01 10:14:23
  TRACK 467 AUDIO
    TITLE "0:"
    INDEX 01 10:16:14
  TRACK 468 AUDIO
    TITLE "10:cjc171_00534"
    INDEX 01 10:16:63
  TRACK 469 AUDIO
    TITLE "0:"
    INDEX 01 10:18:54
  TRACK 470 AUDIO
    TITLE "8:cjc171_00535"
    INDEX 01 10:19:59
  TRACK 471 AUDIO
    TITLE "0:"
    INDEX 01 10:21:05
  TRACK 472 AUDIO
    TITLE "9:cjc171_00536"
    INDEX 01 10:21:34
  TRACK 473 AUDIO
    TITLE "0:"
    INDEX 01 10:23:71
  TRACK 474 AUDIO
    TITLE "10:cjc171_00537"
    INDEX 01 10:24:48
  TRACK 475 AUDIO
    TITLE "0:"
    INDEX 01 10:27:10
  TRACK 476 AUDIO
    TITLE "8:cjc171_00538"
    INDEX 01 10:28:15
  TRACK 477 AUDIO
    TITLE "0:"
    INDEX 01 10:29:26
  TRACK 478 AUDIO
    TITLE "9:cjc171_00539"
    INDEX 01 10:29:54
  TRACK 479 AUDIO
    TITLE "0:"
    INDEX 01 10:32:09
  TRACK 480 AUDIO
    TITLE "10:cjc171_00540"
    INDEX 01 10:32:64
  TRACK 481 AUDIO
    TITLE "0:"
    INDEX 01 10:35:19
  TRACK 482 AUDIO
    TITLE "8:cjc171_00541"
    INDEX 01 10:36:24
  TRACK 483 AUDIO
    TITLE "0:"
    INDEX 01 10:37:41
  TRACK 484 AUDIO
    TITLE "9:cjc171_00542"
    INDEX 01 10:37:69
  TRACK 485 AUDIO
    TITLE "0:"
    INDEX 01 10:39:72
  TRACK 486 AUDIO
    TITLE "10:cjc171_00543"
    INDEX 01 10:40:51
  TRACK 487 AUDIO
    TITLE "0:"
    INDEX 01 10:42:54
  TRACK 488 AUDIO
    TITLE "8:cjc171_00544"
    INDEX 01 10:43:60
  TRACK 489 AUDIO
    TITLE "0:"
    INDEX 01 10:44:71
  TRACK 490 AUDIO
    TITLE "9:cjc171_00545"
    INDEX 01 10:45:25
  TRACK 491 AUDIO
    TITLE "0:"
    INDEX 01 10:47:57
  TRACK 492 AUDIO
    TITLE "10:cjc171_00546"
    INDEX 01 10:48:37
  TRACK 493 AUDIO
    TITLE "0:"
    INDEX 01 10:50:69
  TRACK 494 AUDIO
    TITLE "8:cjc171_00547"
    INDEX 01 10:52:00
  TRACK 495 AUDIO
    TITLE "0:"
    INDEX 01 10:53:38
  TRACK 496 AUDIO
    TITLE "9:cjc171_00548"
    INDEX 01 10:53:68
  TRACK 497 AUDIO
    TITLE "0:"
    INDEX 01 10:56:23
  TRACK 498 AUDIO
    TITLE "10:cjc171_00549"
    INDEX 01 10:57:01
  TRACK 499 AUDIO
    TITLE "0:"
    INDEX 01 10:59:31
  TRACK 500 AUDIO
    TITLE "8:cjc171_00550"
    INDEX 01 11:00:33
  TRACK 501 AUDIO
    TITLE "0:"
    INDEX 01 11:01:46
  TRACK 502 AUDIO
    TITLE "9:cjc171_00551"
    INDEX 01 11:01:71
  TRACK 503 AUDIO
    TITLE "0:"
    INDEX 01 11:04:01
  TRACK 504 AUDIO
    TITLE "10:cjc171_00552"
    INDEX 01 11:04:54
  TRACK 505 AUDIO
    TITLE "0:"
    INDEX 01 11:06:57
  TRACK 506 AUDIO
    TITLE "8:cjc171_00553"
    INDEX 01 11:07:62
  TRACK 507 AUDIO
    TITLE "0:"
    INDEX 01 11:08:69
  TRACK 508 AUDIO
    TITLE "9:cjc171_00554"
    INDEX 01 11:09:24
  TRACK 509 AUDIO
    TITLE "0:"
    INDEX 01 11:11:17
  TRACK 510 AUDIO
    TITLE "10:cjc171_00555"
    INDEX 01 11:11:70
  TRACK 511 AUDIO
    TITLE "0:"
    INDEX 01 11:13:63
  TRACK 512 AUDIO
    TITLE "8:cjc171_00556"
    INDEX 01 11:14:64
  TRACK 513 AUDIO
    TITLE "0:"
    INDEX 01 11:16:12
  TRACK 514 AUDIO
    TITLE "9:cjc171_00557"
    INDEX 01 11:16:41
  TRACK 515 AUDIO
    TITLE "0:"
    INDEX 01 11:18:60
  TRACK 516 AUDIO
    TITLE "10:cjc171_00558"
    INDEX 01 11:19:40
  TRACK 517 AUDIO
    TITLE "0:"
    INDEX 01 11:21:56
  TRACK 518 AUDIO
    TITLE "8:cjc171_00559"
    INDEX 01 11:22:62
  TRACK 519 AUDIO
    TITLE "0:"
    INDEX 01 11:24:02
  TRACK 520 AUDIO
    TITLE "9:cjc171_00560"
    INDEX 01 11:24:29
  TRACK 521 AUDIO
    TITLE "0:"
    INDEX 01 11:26:57
  TRACK 522 AUDIO
    TITLE "10:cjc171_00561"
    INDEX 01 11:27:37
  TRACK 523 AUDIO
    TITLE "0:"
    INDEX 01 11:29:66
  TRACK 524 AUDIO
    TITLE "8:cjc171_00562"
    INDEX 01 11:30:71
  TRACK 525 AUDIO
    TITLE "0:"
    INDEX 01 11:32:03
  TRACK 526 AUDIO
    TITLE "9:cjc171_00563"
    INDEX 01 11:32:37
  TRACK 527 AUDIO
    TITLE "0:"
    INDEX 01 11:34:67
  TRACK 528 AUDIO
    TITLE "10:cjc171_00564"
    INDEX 01 11:35:45
  TRACK 529 AUDIO
    TITLE "0:"
    INDEX 01 11:38:02
  TRACK 530 AUDIO
    TITLE "8:cjc171_00565"
    INDEX 01 11:39:05
  TRACK 531 AUDIO
    TITLE "0:"
    INDEX 01 11:40:26
  TRACK 532 AUDIO
    TITLE "9:cjc171_00566"
    INDEX 01 11:40:56
  TRACK 533 AUDIO
    TITLE "0:"
    INDEX 01 11:42:62
  TRACK 534 AUDIO
    TITLE "10:cjc171_00567"
    INDEX 01 11:43:42
  TRACK 535 AUDIO
    TITLE "0:"
    INDEX 01 11:45:49
  TRACK 536 AUDIO
    TITLE "8:cjc171_00568"
    INDEX 01 11:46:54
  TRACK 537 AUDIO
    TITLE "0:"
    INDEX 01 11:47:67
  TRACK 538 AUDIO
    TITLE "9:cjc171_00569"
    INDEX 01 11:48:22
  TRACK 539 AUDIO
    TITLE "0:"
    INDEX 01 11:50:32
  TRACK 540 AUDIO
    TITLE "10:cjc171_00570"
    INDEX 01 11:51:12
  TRACK 541 AUDIO
    TITLE "0:"
    INDEX 01 11:53:23
  TRACK 542 AUDIO
    TITLE "8:cjc171_00571"
    INDEX 01 11:54:24
  TRACK 543 AUDIO
    TITLE "0:"
    INDEX 01 11:55:49
  TRACK 544 AUDIO
    TITLE "9:cjc171_00572"
    INDEX 01 11:55:71
  TRACK 545 AUDIO
    TITLE "0:"
    INDEX 01 11:58:32
  TRACK 546 AUDIO
    TITLE "10:cjc171_00573"
    INDEX 01 11:59:02
  TRACK 547 AUDIO
    TITLE "0:"
    INDEX 01 12:01:40
  TRACK 548 AUDIO
    TITLE "8:cjc171_00574"
    INDEX 01 12:02:34
  TRACK 549 AUDIO
    TITLE "0:"
    INDEX 01 12:03:66
  TRACK 550 AUDIO
    TITLE "9:cjc171_00575"
    INDEX 01 12:04:11
  TRACK 551 AUDIO
    TITLE "0:"
    INDEX 01 12:06:30
  TRACK 552 AUDIO
    TITLE "10:cjc171_00576"
    INDEX 01 12:07:00
  TRACK 553 AUDIO
    TITLE "0:"
    INDEX 01 12:09:16
  TRACK 554 AUDIO
    TITLE "8:cjc171_00577"
    INDEX 01 12:10:19
  TRACK 555 AUDIO
    TITLE "0:"
    INDEX 01 12:11:33
  TRACK 556 AUDIO
    TITLE "9:cjc171_00578"
    INDEX 01 12:11:62
  TRACK 557 AUDIO
    TITLE "0:"
    INDEX 01 12:14:27
  TRACK 558 AUDIO
    TITLE "10:cjc171_00579"
    INDEX 01 12:15:07
  TRACK 559 AUDIO
    TITLE "0:"
    INDEX 01 12:17:47
  TRACK 560 AUDIO
    TITLE "8:cjc171_00580"
    INDEX 01 12:18:52
  TRACK 561 AUDIO
    TITLE "0:"
    INDEX 01 12:20:00
  TRACK 562 AUDIO
    TITLE "9:cjc171_00581"
    INDEX 01 12:20:24
  TRACK 563 AUDIO
    TITLE "0:"
    INDEX 01 12:23:36
  TRACK 564 AUDIO
    TITLE "10:cjc171_00582"
    INDEX 01 12:24:08
  TRACK 565 AUDIO
    TITLE "0:"
    INDEX 01 12:27:20
  TRACK 566 AUDIO
    TITLE "8:cjc171_00583"
    INDEX 01 12:28:15
  TRACK 567 AUDIO
    TITLE "0:"
    INDEX 01 12:29:25
  TRACK 568 AUDIO
    TITLE "9:cjc171_00584"
    INDEX 01 12:29:52
  TRACK 569 AUDIO
    TITLE "0:"
    INDEX 01 12:32:29
  TRACK 570 AUDIO
    TITLE "10:cjc171_00585"
    INDEX 01 12:33:07
  TRACK 571 AUDIO
    TITLE "0:"
    INDEX 01 12:35:63
  TRACK 572 AUDIO
    TITLE "8:cjc171_00586"
    INDEX 01 12:36:62
  TRACK 573 AUDIO
    TITLE "0:"
    INDEX 01 12:37:71
  TRACK 574 AUDIO
    TITLE "9:cjc171_00587"
    INDEX 01 12:38:20
  TRACK 575 AUDIO
    TITLE "0:"
    INDEX 01 12:40:40
  TRACK 576 AUDIO
    TITLE "10:cjc171_00588"
    INDEX 01 12:41:12
  TRACK 577 AUDIO
    TITLE "0:"
    INDEX 01 12:43:21
  TRACK 578 AUDIO
    TITLE "8:cjc171_00589"
    INDEX 01 12:44:34
  TRACK 579 AUDIO
    TITLE "0:"
    INDEX 01 12:45:51
  TRACK 580 AUDIO
    TITLE "9:cjc171_00590"
    INDEX 01 12:45:73
  TRACK 581 AUDIO
    TITLE "0:"
    INDEX 01 12:48:16
  TRACK 582 AUDIO
    TITLE "10:cjc171_00591"
    INDEX 01 12:48:65
  TRACK 583 AUDIO
    TITLE "0:"
    INDEX 01 12:51:09
  TRACK 584 AUDIO
    TITLE "8:cjc171_00592"
    INDEX 01 12:52:12
  TRACK 585 AUDIO
    TITLE "0:"
    INDEX 01 12:53:45
  TRACK 586 AUDIO
    TITLE "9:cjc171_00593"
    INDEX 01 12:53:74
  TRACK 587 AUDIO
    TITLE "0:"
    INDEX 01 12:56:22
  TRACK 588 AUDIO
    TITLE "10:cjc171_00594"
    INDEX 01 12:56:74
  TRACK 589 AUDIO
    TITLE "0:"
    INDEX 01 12:59:22
  TRACK 590 AUDIO
    TITLE "8:cjc171_00595"
    INDEX 01 13:00:25
  TRACK 591 AUDIO
    TITLE "0:"
    INDEX 01 13:01:48
  TRACK 592 AUDIO
    TITLE "9:cjc171_00596"
    INDEX 01 13:02:07
  TRACK 593 AUDIO
    TITLE "0:"
    INDEX 01 13:04:56
  TRACK 594 AUDIO
    TITLE "10:cjc171_00597"
    INDEX 01 13:05:36
  TRACK 595 AUDIO
    TITLE "0:"
    INDEX 01 13:08:11
  TRACK 596 AUDIO
    TITLE "8:cjc171_00598"
    INDEX 01 13:09:14
  TRACK 597 AUDIO
    TITLE "0:"
    INDEX 01 13:10:31
  TRACK 598 AUDIO
    TITLE "9:cjc171_00599"
    INDEX 01 13:10:57
  TRACK 599 AUDIO
    TITLE "0:"
    INDEX 01 13:13:24
  TRACK 600 AUDIO
    TITLE "10:cjc171_00600"
    INDEX 01 13:14:04
  TRACK 601 AUDIO
    TITLE "0:"
    INDEX 01 13:16:50
